<svg width="827" height="287" viewBox="0 0 827 287" fill="none" xmlns="http://www.w3.org/2000/svg">
<path fill-rule="evenodd" clip-rule="evenodd" d="M420.293 274.149C431.796 261.996 443.023 253.6 454.08 248.64C366.52 175.377 325.764 82.572 333.241 48.3507C345.489 128.393 422.595 220.501 454.128 248.619C463.721 244.324 473.188 242.632 482.596 243.355C456.16 206.744 430.979 60.6586 446.231 25.6933C434.015 31.796 421.26 41.7786 399.735 38.3293C426.397 30.4826 436.42 22.428 458.925 8.10795C436.248 86.2759 466.837 202.316 484.105 243.492C490.872 244.199 497.609 246.145 504.344 249.277C503.689 195.156 565.353 44.7573 603.883 20.5826C581.104 20.856 564.364 16.1906 543.784 9.87996C529.647 34.304 520.044 63.392 512.499 92.2066C515.241 60.716 527.317 29.296 538.843 1.09731e-05C569.304 8.92001 596.473 11.388 626.932 11.5253C558.22 71.4653 516.261 198.067 506.36 250.26C510.731 252.444 515.101 255.121 519.48 258.275C540.475 213.24 673.404 108.996 720.249 107.7C700.489 96.3693 691.731 85.4946 677.208 69.604C652.628 83.4653 615.585 116.817 594.449 137.807C612.805 112.075 653.161 76.3199 677.968 56.9386C699.68 80.0919 721.828 96.0173 747.999 111.607C656.119 128.763 552.884 220.532 520.38 258.928C522.964 260.827 525.551 262.869 528.14 265.095C614.723 238.711 703.083 231.919 807.229 269.211C795.976 252.471 791.861 237.377 791.589 220.637C742.751 210.611 685.943 202.656 619.523 205.819C668.812 195.527 737.62 193.879 798.998 209.935C804.136 240.676 814.429 264.549 826.163 286.499C711.813 246.467 614.223 246.123 524.024 280.736C486.701 251.648 451.575 251.373 425.231 281.56C319.304 274.789 140.927 270.413 35 279.089C127.241 267.975 306.097 267.701 420.293 274.149" fill="#2F2D2D"/>
<path d="M0.405273 226.5C0.405273 225.27 1.20508 224.367 2.80469 223.793C14.207 219.363 25.6094 205.828 37.0117 183.188C45.9531 165.469 52.9668 146.807 58.0527 127.201C60.0625 119.449 61.0674 113.851 61.0674 110.405C61.0674 109.134 60.7803 108.498 60.2061 108.498C54.792 108.498 47.9424 112.641 39.6572 120.926C38.8369 121.746 37.9141 122.156 36.8887 122.156C35.9043 122.156 34.9199 121.951 33.9355 121.541C32.9922 121.131 32.1309 120.598 31.3516 119.941C29.5059 118.506 28.583 117.05 28.583 115.573C28.583 114.056 29.0547 112.661 29.998 111.39C30.9414 110.118 32.2129 108.888 33.8125 107.698C35.4121 106.509 37.2373 105.422 39.2881 104.438C41.3389 103.412 43.4922 102.51 45.748 101.73C50.5059 100.131 54.1562 99.3311 56.6992 99.3311C59.2832 99.3311 61.5391 99.4951 63.4668 99.8232C65.3945 100.11 67.2402 100.623 69.0039 101.361C73.2695 103.207 75.4023 105.853 75.4023 109.298C75.4023 115.45 73.4746 125.273 69.6191 138.768C65.5176 153.041 60.1445 167.007 53.5 180.665C43.9023 199.86 33.7715 213.662 23.1074 222.07C16.873 226.992 10.9668 229.453 5.38867 229.453C3.29688 229.453 1.7793 228.899 0.835938 227.792C0.548828 227.423 0.405273 226.992 0.405273 226.5ZM76.6328 173.467C76.7969 169.898 77.3916 166.494 78.417 163.254C79.4424 159.973 80.8164 156.814 82.5391 153.779C84.2617 150.703 86.2715 147.812 88.5684 145.104C90.9062 142.356 93.4287 139.957 96.1357 137.906C102.001 133.518 107.928 131.323 113.916 131.323C120.93 131.323 125.605 134.215 127.943 139.998C128.764 141.967 129.153 144.305 129.112 147.012C129.071 149.678 128.559 152.159 127.574 154.456C126.59 156.712 125.216 158.783 123.452 160.67C121.729 162.516 119.658 164.177 117.238 165.653C114.859 167.13 112.255 168.381 109.425 169.406C103.601 171.457 97.3662 172.523 90.7217 172.605C90.5576 173.18 90.4551 174.041 90.4141 175.189C90.373 176.338 90.4961 177.63 90.7832 179.065C91.0703 180.46 91.5625 181.711 92.2598 182.818C93.7363 185.279 95.8691 186.51 98.6582 186.51C103.416 186.51 108.051 185.115 112.562 182.326C114.162 181.383 115.454 180.419 116.438 179.435C117.464 178.409 118.346 177.896 119.084 177.896C119.822 177.896 120.458 178.348 120.991 179.25C121.565 180.111 121.853 181.096 121.853 182.203C121.853 184.377 121.237 186.264 120.007 187.863C114.839 193.031 107.148 195.615 96.9355 195.615C90.9062 195.615 86.0664 193.811 82.416 190.201C78.3145 186.1 76.3867 180.521 76.6328 173.467ZM112.562 139.506C108.256 139.506 104.113 142.459 100.135 148.365C96.7715 153.451 94.0645 159.48 92.0137 166.453C98.8633 165.756 104.811 163.049 109.855 158.332C114.49 153.902 116.808 149.657 116.808 145.597C116.808 141.536 115.393 139.506 112.562 139.506ZM220.598 142.951C218.219 142.951 213.871 146.396 207.555 153.287C202.838 158.66 199.413 162.7 197.28 165.407L191.743 172.421C189.364 176.933 187.498 180.686 186.145 183.68L182.822 190.816C181.961 192.58 181.202 193.831 180.546 194.569C179.931 195.267 179.069 195.615 177.962 195.615C176.896 195.615 175.85 195.41 174.824 195C173.84 194.631 172.979 194.139 172.24 193.523C170.682 192.211 169.902 190.775 169.902 189.217C169.902 188.602 170.354 187.392 171.256 185.587L173.594 180.604C174.332 179.127 175.193 177.24 176.178 174.943L179.623 166.515C184.463 154.415 186.883 146.602 186.883 143.074C186.883 141.188 186.268 139.793 185.037 138.891L183.807 138.029C183.396 137.742 183.191 137.25 183.191 136.553C183.191 135.814 183.458 135.117 183.991 134.461C184.565 133.805 185.304 133.23 186.206 132.738C188.052 131.795 189.897 131.323 191.743 131.323C193.63 131.323 195.106 131.528 196.173 131.938C197.239 132.349 198.162 132.902 198.941 133.6C200.5 135.035 201.279 136.532 201.279 138.091C201.279 139.649 201.074 141.229 200.664 142.828C200.254 144.387 199.741 145.986 199.126 147.627C198.511 149.227 197.854 150.785 197.157 152.303C195.517 155.83 194.491 158.004 194.081 158.824C193.712 159.604 193.609 159.891 193.773 159.686C201.279 149.965 205.791 144.223 207.309 142.459C210.467 138.809 212.928 136.307 214.691 134.953C217.932 132.533 220.987 131.323 223.858 131.323C226.771 131.323 229.088 132.226 230.811 134.03C232.533 135.835 233.395 138.214 233.395 141.167C233.395 143.751 232.738 146.786 231.426 150.272C230.113 153.759 229.231 156.199 228.78 157.594L237.824 145.658L242.869 139.629C245.904 136.225 248.57 133.989 250.867 132.923C253.164 131.856 255.03 131.323 256.466 131.323C257.942 131.323 259.378 131.59 260.772 132.123C262.208 132.656 263.418 133.415 264.402 134.399C266.494 136.409 267.54 139.075 267.54 142.397C267.54 145.597 266.802 148.878 265.325 152.241C263.849 155.604 262.557 158.373 261.449 160.547C260.342 162.68 259.275 164.833 258.25 167.007C255.256 173.528 253.759 178.368 253.759 181.526C253.759 183.741 254.661 184.849 256.466 184.849C258.188 184.849 259.747 184.479 261.142 183.741C262.577 183.003 263.5 182.634 263.91 182.634C264.771 182.634 265.202 183.064 265.202 183.926C265.202 187.576 263.336 190.632 259.604 193.093C257.102 194.774 254.805 195.615 252.713 195.615C250.662 195.615 249.001 195.369 247.729 194.877C246.458 194.385 245.31 193.605 244.284 192.539C241.987 190.16 240.839 187.187 240.839 183.618C240.839 180.05 241.29 176.769 242.192 173.774C243.095 170.78 244.161 167.889 245.392 165.1C246.622 162.27 247.853 159.686 249.083 157.348C250.354 154.969 251.318 153.082 251.975 151.688C253.287 148.816 253.943 146.704 253.943 145.351C253.943 143.751 253.103 142.951 251.421 142.951C249.206 142.951 245.228 146.622 239.485 153.964C235.138 159.665 232.123 163.767 230.441 166.269L226.196 172.421C223.817 176.933 221.992 180.686 220.721 183.68L217.583 190.816C216.804 192.58 216.127 193.831 215.553 194.569C214.979 195.267 214.179 195.615 213.153 195.615C212.128 195.615 211.123 195.451 210.139 195.123C209.195 194.795 208.375 194.364 207.678 193.831C206.078 192.642 205.278 191.391 205.278 190.078C205.278 188.725 205.709 186.899 206.57 184.603C207.473 182.265 208.58 179.66 209.893 176.789L218.506 158.578C221.582 151.811 223.12 147.524 223.12 145.72C223.12 143.874 222.279 142.951 220.598 142.951ZM226.688 160.301C226.729 160.301 226.75 160.28 226.75 160.239L226.812 160.116C226.729 160.198 226.688 160.26 226.688 160.301ZM277.568 173.467C277.732 169.898 278.327 166.494 279.353 163.254C280.378 159.973 281.752 156.814 283.475 153.779C285.197 150.703 287.207 147.812 289.504 145.104C291.842 142.356 294.364 139.957 297.071 137.906C302.937 133.518 308.863 131.323 314.852 131.323C321.865 131.323 326.541 134.215 328.879 139.998C329.699 141.967 330.089 144.305 330.048 147.012C330.007 149.678 329.494 152.159 328.51 154.456C327.525 156.712 326.151 158.783 324.388 160.67C322.665 162.516 320.594 164.177 318.174 165.653C315.795 167.13 313.19 168.381 310.36 169.406C304.536 171.457 298.302 172.523 291.657 172.605C291.493 173.18 291.391 174.041 291.35 175.189C291.309 176.338 291.432 177.63 291.719 179.065C292.006 180.46 292.498 181.711 293.195 182.818C294.672 185.279 296.805 186.51 299.594 186.51C304.352 186.51 308.986 185.115 313.498 182.326C315.098 181.383 316.39 180.419 317.374 179.435C318.399 178.409 319.281 177.896 320.02 177.896C320.758 177.896 321.394 178.348 321.927 179.25C322.501 180.111 322.788 181.096 322.788 182.203C322.788 184.377 322.173 186.264 320.942 187.863C315.774 193.031 308.084 195.615 297.871 195.615C291.842 195.615 287.002 193.811 283.352 190.201C279.25 186.1 277.322 180.521 277.568 173.467ZM313.498 139.506C309.191 139.506 305.049 142.459 301.07 148.365C297.707 153.451 295 159.48 292.949 166.453C299.799 165.756 305.746 163.049 310.791 158.332C315.426 153.902 317.743 149.657 317.743 145.597C317.743 141.536 316.328 139.506 313.498 139.506Z" fill="#2F2D2D"/>
</svg>
